<?xml version="1.0" standalone="no"?>
<!DOCTYPE svg PUBLIC "-//W3C//DTD SVG 20010904//EN"
 "http://www.w3.org/TR/2001/REC-SVG-20010904/DTD/svg10.dtd">
<svg version="1.0" xmlns="http://www.w3.org/2000/svg"
 width="512.000000pt" height="512.000000pt" viewBox="0 0 512.000000 512.000000"
 preserveAspectRatio="xMidYMid meet">
<metadata>
Created by potrace 1.11, written by Peter Selinger 2001-2013
</metadata>
<g transform="translate(0.000000,512.000000) scale(0.100000,-0.100000)"
fill="#000000" stroke="none">
<path d="M2777 5094 c-1 -1 -47 -4 -102 -8 -305 -19 -720 -117 -975 -228 -339
-149 -608 -329 -853 -571 -133 -133 -167 -171 -263 -297 -239 -315 -409 -669
-503 -1045 -22 -87 -23 -90 -53 -250 -26 -137 -31 -404 -11 -545 18 -127 77
-363 120 -480 140 -376 415 -751 789 -1070 74 -64 304 -230 318 -230 3 0 22
-11 42 -25 153 -104 585 -261 850 -309 208 -38 541 -42 754 -10 263 40 354 61
542 127 161 57 180 65 363 156 164 81 348 196 420 262 70 64 57 73 -42 28 -24
-10 -49 -19 -56 -19 -7 0 -17 -4 -23 -8 -9 -9 -109 -49 -251 -101 -252 -93
-656 -186 -903 -208 -154 -14 -651 -6 -679 12 -3 1 -28 6 -56 9 -236 30 -531
134 -773 273 -46 26 -252 162 -262 173 -3 3 -27 23 -55 45 -76 60 -131 111
-233 214 -281 284 -482 627 -572 976 -38 148 -45 207 -45 390 0 181 6 249 40
435 17 98 68 276 105 365 4 11 20 52 36 90 152 384 459 789 804 1061 246 194
574 356 878 434 73 18 287 59 342 65 14 1 61 6 105 11 101 11 406 11 505 0
657 -70 1217 -466 1521 -1077 92 -184 162 -404 184 -579 26 -196 25 -407 0
-541 -20 -104 -30 -143 -52 -209 -169 -502 -602 -881 -1163 -1018 -83 -21 -98
-24 -190 -39 -25 -5 -94 -8 -155 -8 -85 0 -121 4 -160 19 -126 49 -191 119
-199 212 -6 62 5 84 95 199 154 197 239 352 295 538 29 96 38 171 38 297 -1
197 -37 326 -161 579 -123 251 -311 536 -581 884 -88 113 -120 147 -135 145
-24 -4 -27 -9 -67 -133 -44 -137 -92 -249 -232 -535 -199 -408 -286 -624 -322
-802 -16 -78 -21 -199 -11 -253 13 -70 58 -186 100 -259 136 -240 333 -397
667 -536 103 -42 122 -59 164 -143 113 -223 297 -364 517 -395 63 -9 253 -8
322 1 462 63 875 301 1145 662 193 257 333 603 358 884 11 135 4 437 -13 501
-2 8 -7 29 -10 45 -8 50 -12 65 -55 205 -54 176 -78 239 -152 390 -105 215
-310 499 -459 635 -262 238 -474 368 -755 464 -186 62 -380 107 -544 126 -102
11 -287 24 -293 19z m-193 -1687 c129 -135 351 -481 411 -640 60 -162 68 -358
19 -505 -53 -156 -162 -264 -299 -294 -154 -35 -285 10 -415 141 -88 90 -131
158 -173 278 -27 78 -31 101 -31 203 0 198 51 324 261 643 114 174 148 217
172 217 8 0 33 -19 55 -43z"/>
<path d="M2518 2888 c-93 -126 -182 -292 -198 -371 -37 -185 40 -357 195 -437
54 -28 90 -31 165 -16 73 15 123 54 157 124 23 47 28 71 30 152 4 150 -25 233
-141 405 -81 119 -132 175 -162 175 -13 0 -31 -13 -46 -32z"/>
</g>
</svg>
